Simulation
nRows=46
nColumns=15
endheader
time  TH_x TH_y TH_z SC_y  SC_z  SC_x  AC_y  AC_z  AC_x  GH_y  GH_z  GH_yy  EL_x  PS_y
8.073123595505619  0.000000  0.000000  0.000000  -23.382678003263887  5.257669457671603  8.31454216106499  56.38787114733047  4.783182081349872  -0.2837737087364721  -162.11754226364377  3.816050485543339  -140.7860581976273  16.914572324984263  120.000000
8.113288389513109  0.000000  0.000000  0.000000  -23.059773343651447  5.217235670615768  8.175497238485676  56.153815783339645  4.7420414015438865  -0.40876121294545953  -170.4738077684838  3.3405027497806405  -132.67476284864563  16.41501005298926  120.000000
8.153453183520599  0.000000  0.000000  0.000000  -22.720064812764114  5.110846456149982  8.022543276109369  55.9630779309608  4.790821442936798  -0.5421487650403557  175.91633267995914  2.7213887073063745  -119.43574879507617  15.832419688792099  120.000000
8.19361797752809  0.000000  0.000000  0.000000  -22.378455540422504  4.953177711547258  7.855199188859491  55.80950853133535  4.954899220559568  -0.6699077516194424  149.75246064444184  2.1711157431788997  -93.7875328383167  15.192558307551849  120.000000
8.23378277153558  0.000000  0.000000  0.000000  -22.053993542999365  4.768198661633389  7.667391787377527  55.67794011572754  5.251843543780561  -0.7747401273875862  109.77789096084615  2.3063126804028786  -54.49062400819771  14.53096492035961  120.000000
8.273947565543072  0.000000  0.000000  0.000000  -21.76435292166692  4.582524501277094  7.452680693372816  55.55015814422987  5.689636634932871  -0.8379582343790023  80.83728105075873  3.485673949244916  -26.40272729637171  13.887375465205627  120.000000
8.314112359550561  0.000000  0.000000  0.000000  -21.520083494111002  4.418579572327186  7.20800187699124  55.412971629957504  6.26694918877314  -0.8420939416652412  66.75405574467241  5.352773133867669  -13.358690662049298  13.296855062505694  120.000000
8.354277153558053  0.000000  0.000000  0.000000  -21.319895903315825  4.292186343997346  6.935805208664571  55.26089967030775  6.974479280316809  -0.7732648428231224  59.57955737237406  7.658409218556706  -7.411053442535682  12.780170172824912  120.000000
8.394441947565543  0.000000  0.000000  0.000000  -21.150760632704326  4.21431015716763  6.6435624406058755  55.09327502262454  7.795331473887475  -0.6211193289420008  55.45886724731055  10.29806508512503  -4.684147119339328  12.342594388302736  120.000000
8.434606741573035  0.000000  0.000000  0.000000  -20.99220396725334  4.1919429060549955  6.341816577599826  54.9073668495473  8.703502015167379  -0.3808114623339898  52.798050468599726  13.20478875238796  -3.547913891985438  11.977777526401825  120.000000
8.474771535580524  0.000000  0.000000  0.000000  -20.824978814838705  4.228871639119603  6.043355877980112  54.69879580185469  9.66531648554128  -0.0529364238982411  50.88033603935968  16.317994188503793  -3.2432454287188883  11.6726094751141  120.000000
8.514936329588014  0.000000  0.000000  0.000000  -20.63664174347886  4.326079643204672  5.76460140461153  54.466588742998354  10.642137191875522  0.3551368006354819  49.36859418598012  19.58116086254355  -3.3904237145782417  11.413781831988926  120.000000
8.555101123595506  0.000000  0.000000  0.000000  -20.421414785131184  4.477723889426629  5.526049032693996  54.215050310868236  11.595184749022412  0.8300554943843461  48.106655234189176  22.944344986902564  -3.7944859170412384  11.190436679452679  120.000000
8.595265917602996  0.000000  0.000000  0.000000  -20.1850486086258  4.671649401648552  5.3498596907956975  53.96069334224349  12.49105321253285  1.3572277015623666  47.01255421987399  26.36178582769913  -4.344828228947368  10.995745952982  120.000000
8.635430711610487  0.000000  0.000000  0.000000  -19.94924465482453  4.896761485360685  5.257918403751713  53.728359499092804  13.303864665366314  1.9204627597482449  46.03796830938941  29.78978721892273  -4.97480017871534  10.827355689846518  120.000000
8.675595505617977  0.000000  0.000000  0.000000  -19.746557086016868  5.144235496530437  5.270748202936066  53.54273698773375  14.015418283446735  2.5014164179855753  45.14968693320834  33.185589004966126  -5.6423673420415135  10.684279087506654  120.000000
8.715760299625469  0.000000  0.000000  0.000000  -19.611115535888366  5.405891668053666  5.406165833135871  53.42646456129475  14.615627825187241  3.0815735504820183  44.32031636614014  36.5067091211279  -6.319798548677015  10.564526250046558  120.000000
8.755925093632959  0.000000  0.000000  0.000000  -19.570492559171566  5.67489523774562  5.677822938215159  53.39732721766709  15.101498391063513  3.645321122316471  43.526798266798544  39.71088763428103  -6.989177759294602  10.465933648396534  120.000000
8.79608988764045  0.000000  0.000000  0.000000  -19.64096755454557  5.945632285558203  6.093555119466872  53.46676178830505  15.475786693729225  4.182641027323361  42.74870103168669  42.756035497190304  -7.639637629254195  10.38667210312706  120.000000
8.83625468164794  0.000000  0.000000  0.000000  -19.82640158769148  6.214358975054138  6.653918669674708  53.638620877059516  15.745331575542188  4.6903460747562855  41.96837216811841  45.60165335569328  -8.265472025303412  10.325829393170176  120.000000
8.87641947565543  0.000000  0.000000  0.000000  -20.119973670250488  6.479267872705654  7.351952268987345  53.909046765032386  15.919878567417323  5.171724594389645  41.17207570393112  48.21094620256051  -8.865519279406445  10.283672490153629  120.000000
8.916584269662922  0.000000  0.000000  0.000000  -20.507526898572582  6.739693695255842  8.173925127098027  54.26786775140392  16.011381834907304  5.634852640946311  40.351201065248226  50.55370386783008  -9.441987508190156  10.260609126853092  120.000000
8.956749063670411  0.000000  0.000000  0.000000  -20.971608639191768  6.99538403123395  9.100668773756066  54.700695372186715  16.03316739469738  6.090185086574275  39.50260277292343  52.6094435032301  -9.99794078557141  10.256752034998257  120.000000
8.996913857677903  0.000000  0.000000  0.000000  -21.495082061264814  7.245614577078966  10.10945601790171  55.19061421566818  15.99954506670127  6.547396477363859  38.62931869254678  54.370159018210906  -10.534014018238388  10.270933454245155  120.000000
9.037078651685393  0.000000  0.000000  0.000000  -22.063313183315557  7.488346430160217  11.17570552266913  55.71949790109865  15.925290097716609  7.0126639254498855  37.74032805927609  55.84196966278471  -11.045620270529449  10.299693017608856  120.000000
9.077243445692885  0.000000  0.000000  0.000000  -22.664822422916632  7.719770880698628  12.274441488606508  56.268557155774275  15.825454041518311  7.4867982918137415  36.85015783068535  57.04435390176913  -11.522111556360642  10.336944277885353  120.000000
9.117408239700374  0.000000  0.000000  0.000000  -23.289885279993275  7.93478695688182  13.380929283511897  56.818637952391356  15.714660992278958  7.965035988883487  35.97699614704184  58.00700396179274  -11.94813288704758  10.374766104431513  120.000000
9.157573033707866  0.000000  0.000000  0.000000  -23.928260161315897  8.127215340752972  14.470904144857869  57.35096558688923  15.606315629575805  8.437634397981405  35.14118816134369  58.76517438480192  -12.30717270708522  10.404776010164857  120.000000
9.197737827715356  0.000000  0.000000  0.000000  -24.56670779535972  8.290779479020415  15.520052090093412  57.848394600398784  15.510752640919083  8.891519742344201  34.36364564525823  59.355260277416434  -12.585770988335602  10.42018221059472  120.000000
9.237902621722846  0.000000  0.000000  0.000000  -25.18686556572947  8.421057289079432  16.503400197366613  58.29631577764518  15.433288644871514  9.311964703276562  33.664543932471  59.81106408629832  -12.777565502398797  10.417628373541381  120.000000
9.278067415730337  0.000000  0.000000  0.000000  -25.76515712019177  8.516177473548154  17.39576433936481  58.684075147251676  15.373419263249618  9.683570343819872  33.061771655118925  60.161015492439184  -12.885429387586525  10.398184730542557  120.000000
9.318232209737827  0.000000  0.000000  0.000000  -26.275163364195734  8.577172231555386  18.1727154607669  59.00558743871772  15.325201916974518  9.990543676496445  32.57017063626768  60.42719736470784  -12.921199016611755  10.366939684188257  120.000000
9.358397003745319  0.000000  0.000000  0.000000  -26.69058782061767  8.606838973182166  18.812563384312828  59.2590705190754  15.2796108505189  10.21691337281013  32.20127585421502  60.62401577047584  -12.902569927906562  10.331154503356471  120.000000
9.398561797752809  0.000000  0.000000  0.000000  -26.987677832504016  8.607360490829262  19.297650049543094  59.44620923110485  15.226705083681422  10.346690302612602  31.963916851814098  60.75864451327766  -12.849232916240725  10.297850064426774  120.000000
9.4387265917603  0.000000  0.000000  0.000000  -27.148916202331684  8.579613725030102  19.61580081966848  59.57094879182809  15.157312648518028  10.365076177183639  31.866209839257074  60.830693307122374  -12.77959348046213  10.271624391847757  120.000000
9.47889138576779  0.000000  0.000000  0.000000  -27.16591224761603  8.522867871690034  19.761103660041652  59.637966146284185  15.064127759256799  10.259713578879069  31.916510703671918  60.83249336966664  -12.70739214610599  10.253142722697541  120.000000
9.519056179775282  0.000000  0.000000  0.000000  -27.040388968299116  8.43450757790758  19.73411282423952  59.65120660941291  14.942697711617669  10.022205643705425  32.12330737331367  60.74896147817131  -12.639856147734909  10.23852549841359  120.000000
9.559220973782772  0.000000  0.000000  0.000000  -26.783305561304438  8.31080317298858  19.540831329798895  59.61336342022208  14.791499422016814  9.649864408976397  32.4941789339542  60.55803859963552  -12.577239793558839  10.220010215879764  120.000000
9.599385767790261  0.000000  0.000000  0.000000  -26.41242708516828  8.148568943537715  19.191086131516315  59.5259776775496  14.611309515542114  9.147244322039608  33.0342464014395  60.23131615623769  -12.513989436267012  10.188357448939481  120.000000
9.639550561797753  0.000000  0.000000  0.000000  -25.94960440200575  7.9468491935816035  18.697495114435444  59.389603072525624  14.404722602436873  8.527658905629227  33.74498380776341  59.73342209257593  -12.440261333863514  10.13601035269204  120.000000
9.679715355805243  0.000000  0.000000  0.000000  -25.417978286656908  7.707683684070146  18.074282546837157  59.204273572159835  14.175766552733817  7.813093034195943  34.62238888426716  59.02268782698403  -12.343780440941718  10.06064550226102  120.000000
9.719880149812735  0.000000  0.000000  0.000000  -24.84077945006082  7.436998663956026  17.337501420765165  58.96920764222553  13.930230390722341  7.033664486207506  35.655936049297345  58.05096661979386  -12.211102747803485  9.967764595529674  120.000000
9.760044943820224  0.000000  0.000000  0.000000  -24.240054144831458  7.144063681441068  16.50435717579805  58.68359660801871  13.676018738385574  6.224219659566007  36.82703712219495  56.76755351120258  -12.028026416752432  9.870488175120197  120.000000
9.800209737827716  0.000000  0.000000  0.000000  -23.63601783991667  6.839676725998774  15.593318321437797  58.347349308282546  13.423317464676437  5.420570932530053  38.109233359030156  55.12386638531906  -11.779448077784123  9.786984426352648  120.000000
9.840374531835206  0.000000  0.000000  0.000000  -23.04677227941761  6.535225396783366  14.623047759502207  57.96206859586229  13.183319522336996  4.654377663774418  39.46880857470163  53.08184233292516  -11.448885865159978  9.736880308760965  120.000000
9.880539325842697  0.000000  0.000000  0.000000  -22.48905749307914  6.240881077841422  13.612366337839156  57.532150336374364  12.966508374907336  3.94958565892749  40.86525426659816  50.62140527551664  -11.01709896139725  9.739153500234126  120.000000
